<svg xmlns="http://www.w3.org/2000/svg" viewBox="0 0 48 48">
  <defs>
    <radialGradient id="ig1" cx="19.38" cy="42.04" r="44.9" gradientUnits="userSpaceOnUse">
      <stop offset="0" stop-color="#FD5"/>
      <stop offset=".1" stop-color="#FD5"/>
      <stop offset=".5" stop-color="#FF543E"/>
      <stop offset="1" stop-color="#C837AB"/>
    </radialGradient>
    <radialGradient id="ig2" cx="11.79" cy="-2.95" r="65.3" gradientUnits="userSpaceOnUse">
      <stop offset="0" stop-color="#3771C8"/>
      <stop offset=".13" stop-color="#3771C8"/>
      <stop offset="1" stop-color="#60F" stop-opacity="0"/>
    </radialGradient>
  </defs>
  <path fill="url(#ig1)" d="M34.02 0H13.98C6.26 0 0 6.26 0 13.98v20.04C0 41.74 6.26 48 13.98 48h20.04C41.74 48 48 41.74 48 34.02V13.98C48 6.26 41.74 0 34.02 0z"/>
  <path fill="url(#ig2)" d="M34.02 0H13.98C6.26 0 0 6.26 0 13.98v20.04C0 41.74 6.26 48 13.98 48h20.04C41.74 48 48 41.74 48 34.02V13.98C48 6.26 41.74 0 34.02 0z"/>
  <path fill="#fff" d="M24 11.6c-4.03 0-4.53.02-6.11.09-1.58.07-2.65.33-3.59.7a7.25 7.25 0 0 0-2.62 1.7 7.25 7.25 0 0 0-1.7 2.62c-.38.94-.63 2.02-.7 3.59-.07 1.58-.09 2.09-.09 6.11s.02 4.53.09 6.11c.07 1.58.33 2.65.7 3.59a7.25 7.25 0 0 0 1.7 2.62 7.25 7.25 0 0 0 2.62 1.7c.94.38 2.02.63 3.59.7 1.58.07 2.09.09 6.11.09s4.53-.02 6.11-.09c1.58-.07 2.65-.33 3.59-.7a7.25 7.25 0 0 0 2.62-1.7 7.25 7.25 0 0 0 1.7-2.62c.38-.94.63-2.02.7-3.59.07-1.58.09-2.09.09-6.11s-.02-4.53-.09-6.11c-.07-1.58-.33-2.65-.7-3.59a7.25 7.25 0 0 0-1.7-2.62 7.25 7.25 0 0 0-2.62-1.7c-.94-.38-2.02-.63-3.59-.7-1.58-.07-2.09-.09-6.11-.09zm0 2.23c3.96 0 4.43.02 5.99.09 1.44.07 2.23.3 2.75.5.69.27 1.18.59 1.7 1.1.52.52.84 1.01 1.1 1.7.2.52.44 1.3.5 2.75.07 1.56.09 2.03.09 5.99s-.02 4.43-.09 5.99c-.07 1.44-.3 2.23-.5 2.75-.27.69-.59 1.18-1.1 1.7-.52.52-1.01.84-1.7 1.1-.52.2-1.3.44-2.75.5-1.56.07-2.03.09-5.99.09s-4.43-.02-5.99-.09c-1.44-.07-2.23-.3-2.75-.5a4.58 4.58 0 0 1-1.7-1.1 4.58 4.58 0 0 1-1.1-1.7c-.2-.52-.44-1.3-.5-2.75-.07-1.56-.09-2.03-.09-5.99s.02-4.43.09-5.99c.07-1.44.3-2.23.5-2.75.27-.69.59-1.18 1.1-1.7.52-.52 1.01-.84 1.7-1.1.52-.2 1.3-.44 2.75-.5 1.56-.07 2.03-.09 5.99-.09z"/>
  <path fill="#fff" d="M24 17.6a6.4 6.4 0 1 0 0 12.8 6.4 6.4 0 0 0 0-12.8zm0 10.56a4.16 4.16 0 1 1 0-8.32 4.16 4.16 0 0 1 0 8.32zm8.15-10.81a1.5 1.5 0 1 1-3 0 1.5 1.5 0 0 1 3 0z"/>
</svg>
