<svg xmlns="http://www.w3.org/2000/svg" viewBox="0 0 512 512">
  <defs>
    <linearGradient id="a" x1="0%" y1="0%" x2="100%" y2="0%">
      <stop offset="0%" stop-color="#0064E0"/>
      <stop offset="50%" stop-color="#0064E0"/>
      <stop offset="100%" stop-color="#0AC3FF"/>
    </linearGradient>
  </defs>
  <path fill="url(#a)" d="M115.34 186.83c-36.6 0-65.76 25.67-89.4 63.62C6.2 283.4 0 326.76 0 356.27c0 42.58 19.15 75.73 60.83 75.73 25.42 0 49.67-16.32 76.64-56.87l22.2-33.37c19.1-28.7 35.16-54.3 51.65-54.3 9.92 0 16.37 6.82 16.37 19.77 0 8.5-3.13 19.95-9.38 34.32l-5.9 13.5c-11.85 27.14-17.78 47.7-17.78 63.97 0 36.67 20.36 56.95 56.44 56.95 41.32 0 74.34-30.62 103.62-75.6l12.85-19.76c26.23-40.3 46.97-75.6 72.87-75.6 9.92 0 16.37 6.82 16.37 19.77 0 8.5-3.13 19.95-9.38 34.32l-5.9 13.5C439.64 400.24 434 420.8 434 437.07c0 36.67 20.36 56.95 56.44 56.95 13.55 0 21.56-7.7 21.56-7.7V440s-3.9 4-10.3 4c-12.37 0-17.7-9.43-17.7-24.3 0-10.95 4.83-26.43 14.72-49.03l5.9-13.5c8.08-18.53 12.18-34.67 12.18-48.57 0-40.9-23.88-64.6-60.65-64.6-41.32 0-76.38 33.4-105.66 78.38l-12.85 19.76c-26.94 41.37-45.5 72.82-71.4 72.82-12.37 0-17.7-9.43-17.7-24.3 0-10.95 4.83-26.43 14.72-49.03l5.9-13.5c8.08-18.53 12.18-34.67 12.18-48.57 0-40.9-23.88-64.6-60.65-64.6-38.53 0-71.2 29.76-99 68.75l-22.2 31.16c-24.45 34.3-42 49.74-57.5 49.74-13.55 0-21.3-10.07-21.3-28.56 0-24.88 5.26-61.36 22.58-91.65 16.83-29.42 37.5-47.03 61.42-47.03 22.83 0 37.72 14.55 37.72 38.92 0 4-.47 8.22-1.4 12.6l39.02 5.7c2.53-7.87 3.88-16.42 3.88-25.4 0-48.13-32.42-80.22-76.52-80.22z"/>
</svg>
